# xmcd CD database file
#
# Track frame offsets:
#	182
#	12167
#	26745
#	41475
#	55377
#	69475
#	82150
#	96390
#	110982
#	125627
#	140637
#	154780
#	166785
#	180017
#	191510
#	205017
#
# Disc length: 2912 seconds
#
# Revision: 0
# Processed by: cddbd v1.5.1PL0 Copyright (c) Steve Scherf et al.
# Submitted via: CDex 1.51
#
DISCID=dd0b5e10
DTITLE=Duke Ellington - The Brunswick Sessions (1932-1935) Vol. 3
DYEAR=1989
DGENRE=Jazz
TTITLE0=Get Yourself a New Broom
TTITLE1=Bundle of Blues (Dragon's Blues)
TTITLE2=Sophisticated Lady
TTITLE3=Stormy Weather
TTITLE4=I'm Satisfied
TTITLE5=Jive Stomp
TTITLE6=Harlem Speaks
TTITLE7=In the Shade of the Old Apple Tree
TTITLE8=Solitude
TTITLE9=Saddest Tale
TTITLE10=Moonglow
TTITLE11=Sump'n 'Bout Rhythm
TTITLE12=Admiration (Stomp)
TTITLE13=Farewell Blues
TTITLE14=Let's Have a Jubilee
TTITLE15=Margie
EXTD=YEAR: 1989
EXTT0=
EXTT1=
EXTT2=
EXTT3=
EXTT4=
EXTT5=
EXTT6=
EXTT7=
EXTT8=
EXTT9=
EXTT10=
EXTT11=
EXTT12=
EXTT13=
EXTT14=
EXTT15=
PLAYORDER=
